# xmcd
#
# Track frame offsets: 
#        150
#        15946
#        32096
#        52457
#        72411
#        85738
#        98103
#        117758
#        135671
#        154369
#        174999
#        190857
#
# Disc length: 2725 seconds
#
# Revision: 1
# Processed by: cddbd v1.5.1PL0 Copyright (c) Steve Scherf et al.
# Submitted via: ExactAudioCopy v0.90b4
#
DISCID=9c0aa30c
DTITLE=Григорий Данской - Коммивояжер
DYEAR=2003
DGENRE=Бардовская песня
TTITLE0=Коммивояжер
TTITLE1=Миша "Пачу"
TTITLE2=Ермаковы дни
TTITLE3=Интермедия в темпе падающего снега
TTITLE4=Моцарт-минор
TTITLE5=Карманная песенка
TTITLE6=Телеграф
TTITLE7=Школьная история (Романс 01)
TTITLE8=Егерская рота
TTITLE9=Лебеда
TTITLE10=Никогда не играй на флейте
TTITLE11=Кода (Акчимскому коту)
EXTD=
EXTT0=
EXTT1=
EXTT2=
EXTT3=
EXTT4=
EXTT5=
EXTT6=
EXTT7=
EXTT8=
EXTT9=
EXTT10=
EXTT11=
PLAYORDER=
